<svg xmlns="http://www.w3.org/2000/svg" viewBox="0 0 50.365 32.313"><defs><style>.a{fill:#2d6287;}</style></defs><g transform="translate(-263.036 -164.892)"><g transform="translate(275.733 164.892)"><path class="a" d="M303.7,190.808H287.943v-1.343H303.7a1.344,1.344,0,0,0,1.342-1.342V167.577a1.344,1.344,0,0,0-1.342-1.342H275.173a1.343,1.343,0,0,0-1.342,1.342v1.877h-1.343v-1.877a2.688,2.688,0,0,1,2.685-2.685H303.7a2.688,2.688,0,0,1,2.685,2.685v20.545A2.688,2.688,0,0,1,303.7,190.808Z" transform="translate(-272.488 -164.892)"/><g transform="translate(12.283 19.381)"><rect class="a" width="20.947" height="1.343"/></g><g transform="translate(20.804 25.245)"><rect class="a" width="1.343" height="5.92"/></g></g><g transform="translate(263.036 170.588)"><g transform="translate(0 14.442)"><path class="a" d="M264.363,192.058l-1.327-.207.936-5.992a5.612,5.612,0,0,1,3.56-4.414l.631-.214a25.638,25.638,0,0,1,16.47.02l.649.22a5.618,5.618,0,0,1,3.552,4.415l.932,5.964-1.328.207-.931-5.964a4.241,4.241,0,0,0-2.66-3.35l-.647-.22a24.3,24.3,0,0,0-15.6-.02l-.633.214a4.233,4.233,0,0,0-2.662,3.349Z" transform="translate(-263.036 -179.883)"/></g><g transform="translate(7.111)"><path class="a" d="M274.445,181.775a5.993,5.993,0,0,1-5.873-4.843l-.132-.682a5.982,5.982,0,0,1,5.872-7.118h.263a5.981,5.981,0,0,1,5.874,7.118l-.133.684A5.992,5.992,0,0,1,274.445,181.775Zm-.133-11.3a4.638,4.638,0,0,0-4.552,5.52l.132.682a4.637,4.637,0,0,0,9.1,0l.133-.684a4.636,4.636,0,0,0-4.554-5.518Z" transform="translate(-268.33 -169.132)"/></g></g><g transform="translate(268.28 189.262)"><path class="a" d="M283.19,190.872h-1.343v-3.249a3.249,3.249,0,0,0-3.245-3.245h-7.074a3.248,3.248,0,0,0-3.244,3.245v3.249H266.94v-3.249a4.594,4.594,0,0,1,4.587-4.589H278.6a4.593,4.593,0,0,1,4.589,4.589Z" transform="translate(-266.94 -183.034)"/></g><g transform="translate(291.255 195.386)"><rect class="a" width="22.146" height="1.343"/></g><g transform="translate(284.404 170.286)"><path class="a" d="M281.406,174.09l-2.462-2.494.955-.944,1.52,1.539,3.324-3.284.945.955Z" transform="translate(-278.943 -168.907)"/></g><g transform="translate(294.157 170.518)"><rect class="a" width="10.323" height="1.343"/></g><g transform="translate(291.472 174.841)"><rect class="a" width="13.008" height="1.343"/></g><g transform="translate(297.564 179.163)"><rect class="a" width="6.916" height="1.343"/></g></g></svg>